<?xml version="1.0" encoding="UTF-8" standalone="no"?>
<!DOCTYPE svg PUBLIC "-//W3C//DTD SVG 1.1//EN"
 "http://www.w3.org/Graphics/SVG/1.1/DTD/svg11.dtd">
<!-- Generated by graphviz version 2.26.3 (20100126.1600)
 -->
<!-- Title: onie_fsm Pages: 1 -->
<svg width="864pt" height="709pt"
 viewBox="0.00 0.00 864.00 709.38" xmlns="http://www.w3.org/2000/svg" xmlns:xlink="http://www.w3.org/1999/xlink">
<g id="graph1" class="graph" transform="scale(0.503823 0.503823) rotate(0) translate(4 1404)">
<title>onie_fsm</title>
<polygon fill="white" stroke="white" points="-4,5 -4,-1404 1711.89,-1404 1711.89,5 -4,5"/>
<!-- Default -->
<g id="node1" class="node"><title>Default</title>
<ellipse fill="none" stroke="black" stroke-width="3" cx="1001.89" cy="-1324" rx="72" ry="72"/>
<ellipse fill="none" stroke="black" stroke-width="3" cx="1001.89" cy="-1324" rx="76" ry="76"/>
<text text-anchor="middle" x="1001.89" y="-1316.5" font-family="Times Roman,serif" font-size="25.00">Default</text>
</g>
<!-- Image_Discovery -->
<g id="node2" class="node"><title>Image_Discovery</title>
<ellipse fill="none" stroke="black" stroke-width="3" cx="1001.89" cy="-1112" rx="72" ry="72"/>
<text text-anchor="middle" x="1001.89" y="-1119.5" font-family="Times Roman,serif" font-size="25.00">Image</text>
<text text-anchor="middle" x="1001.89" y="-1089.5" font-family="Times Roman,serif" font-size="25.00">Discovery</text>
</g>
<!-- Default&#45;&gt;Image_Discovery -->
<g id="edge2" class="edge"><title>Default&#45;&gt;Image_Discovery</title>
<path fill="none" stroke="black" d="M1001.89,-1247.76C1001.89,-1230.4 1001.89,-1211.87 1001.89,-1194.27"/>
<polygon fill="black" stroke="black" points="1005.39,-1194.02 1001.89,-1184.02 998.386,-1194.02 1005.39,-1194.02"/>
<text text-anchor="middle" x="1053.89" y="-1209.7" font-family="Times Roman,serif" font-size="22.00">Power On</text>
</g>
<!-- Image_Discovery&#45;&gt;Image_Discovery -->
<g id="edge4" class="edge"><title>Image_Discovery&#45;&gt;Image_Discovery</title>
<path fill="none" stroke="black" d="M1071.7,-1130.2C1083.62,-1127.72 1091.89,-1121.65 1091.89,-1112 1091.89,-1105.22 1087.8,-1100.2 1081.23,-1096.96"/>
<polygon fill="black" stroke="black" points="1082.29,-1093.62 1071.7,-1093.8 1080.09,-1100.27 1082.29,-1093.62"/>
<text text-anchor="middle" x="1156.89" y="-1105.7" font-family="Times Roman,serif" font-size="22.00">None Found</text>
</g>
<!-- Install_OS -->
<g id="node3" class="node"><title>Install_OS</title>
<ellipse fill="none" stroke="black" stroke-width="3" cx="596.886" cy="-904" rx="72" ry="72"/>
<text text-anchor="middle" x="596.886" y="-911.5" font-family="Times Roman,serif" font-size="25.00">Install</text>
<text text-anchor="middle" x="596.886" y="-881.5" font-family="Times Roman,serif" font-size="25.00">NOS</text>
</g>
<!-- Image_Discovery&#45;&gt;Install_OS -->
<g id="edge6" class="edge"><title>Image_Discovery&#45;&gt;Install_OS</title>
<path fill="none" stroke="black" d="M937.713,-1079.04C864.947,-1041.67 746.535,-980.857 670.19,-941.647"/>
<polygon fill="black" stroke="black" points="671.588,-938.431 661.094,-936.976 668.39,-944.658 671.588,-938.431"/>
<text text-anchor="middle" x="903.386" y="-1001.7" font-family="Times Roman,serif" font-size="22.00">Found Installer</text>
</g>
<!-- Install_OS&#45;&gt;Image_Discovery -->
<g id="edge8" class="edge"><title>Install_OS&#45;&gt;Image_Discovery</title>
<path fill="none" stroke="black" d="M637.53,-963.852C654.367,-984.813 675.455,-1006.87 698.886,-1022 766.494,-1065.66 856.079,-1088.83 920.274,-1100.66"/>
<polygon fill="black" stroke="black" points="919.891,-1104.15 930.351,-1102.46 921.124,-1097.26 919.891,-1104.15"/>
<text text-anchor="middle" x="734.886" y="-1001.7" font-family="Times Roman,serif" font-size="22.00">Failure</text>
</g>
<!-- OS_Boot -->
<g id="node4" class="node"><title>OS_Boot</title>
<ellipse fill="none" stroke="black" stroke-width="3" cx="596.886" cy="-696" rx="72" ry="72"/>
<text text-anchor="middle" x="596.886" y="-703.5" font-family="Times Roman,serif" font-size="25.00">Boot</text>
<text text-anchor="middle" x="596.886" y="-673.5" font-family="Times Roman,serif" font-size="25.00">NOS</text>
</g>
<!-- Install_OS&#45;&gt;OS_Boot -->
<g id="edge10" class="edge"><title>Install_OS&#45;&gt;OS_Boot</title>
<path fill="none" stroke="black" d="M596.886,-831.835C596.886,-814.573 596.886,-796.015 596.886,-778.331"/>
<polygon fill="black" stroke="black" points="600.386,-778.037 596.886,-768.037 593.386,-778.037 600.386,-778.037"/>
<text text-anchor="middle" x="640.886" y="-793.7" font-family="Times Roman,serif" font-size="22.00">Success</text>
</g>
<!-- OS_Boot&#45;&gt;Image_Discovery -->
<g id="edge12" class="edge"><title>OS_Boot&#45;&gt;Image_Discovery</title>
<path fill="none" stroke="black" d="M662.681,-725.393C752.948,-769.534 912.553,-862.07 987.886,-994 994.102,-1004.88 998.155,-1017.25 1000.72,-1029.78"/>
<polygon fill="black" stroke="black" points="997.311,-1030.59 1002.48,-1039.84 1004.21,-1029.38 997.311,-1030.59"/>
<text text-anchor="middle" x="1026.39" y="-897.7" font-family="Times Roman,serif" font-size="22.00">Re&#45;Install</text>
</g>
<!-- OS_Boot&#45;&gt;OS_Boot -->
<g id="edge16" class="edge"><title>OS_Boot&#45;&gt;OS_Boot</title>
<path fill="none" stroke="black" d="M666.698,-714.204C678.624,-711.716 686.886,-705.648 686.886,-696 686.886,-689.216 682.801,-684.202 676.23,-680.958"/>
<polygon fill="black" stroke="black" points="677.291,-677.623 666.698,-677.796 675.087,-684.267 677.291,-677.623"/>
<text text-anchor="middle" x="725.386" y="-689.7" font-family="Times Roman,serif" font-size="22.00">Reboot</text>
</g>
<!-- Rescue_Shell -->
<g id="node5" class="node"><title>Rescue_Shell</title>
<ellipse fill="none" stroke="black" stroke-width="3" cx="670.886" cy="-488" rx="72" ry="72"/>
<text text-anchor="middle" x="670.886" y="-495.5" font-family="Times Roman,serif" font-size="25.00">Rescue</text>
<text text-anchor="middle" x="670.886" y="-465.5" font-family="Times Roman,serif" font-size="25.00">Shell</text>
</g>
<!-- OS_Boot&#45;&gt;Rescue_Shell -->
<g id="edge14" class="edge"><title>OS_Boot&#45;&gt;Rescue_Shell</title>
<path fill="none" stroke="black" d="M621.117,-627.893C628.212,-607.948 636.022,-585.996 643.31,-565.512"/>
<polygon fill="black" stroke="black" points="646.674,-566.499 646.728,-555.905 640.078,-564.153 646.674,-566.499"/>
<text text-anchor="middle" x="705.886" y="-585.7" font-family="Times Roman,serif" font-size="22.00">Rescue Boot</text>
</g>
<!-- Update_Discovery -->
<g id="node6" class="node"><title>Update_Discovery</title>
<ellipse fill="none" stroke="black" stroke-width="3" cx="278.886" cy="-280" rx="72" ry="72"/>
<text text-anchor="middle" x="278.886" y="-287.5" font-family="Times Roman,serif" font-size="25.00">Update</text>
<text text-anchor="middle" x="278.886" y="-257.5" font-family="Times Roman,serif" font-size="25.00">Discovery</text>
</g>
<!-- OS_Boot&#45;&gt;Update_Discovery -->
<g id="edge20" class="edge"><title>OS_Boot&#45;&gt;Update_Discovery</title>
<path fill="none" stroke="black" d="M541.11,-650.411C512.347,-625.391 477.762,-592.839 450.886,-560 397.531,-494.804 348.499,-411.656 316.556,-352.96"/>
<polygon fill="black" stroke="black" points="319.61,-351.25 311.774,-344.12 313.454,-354.58 319.61,-351.25"/>
<text text-anchor="middle" x="520.386" y="-481.7" font-family="Times Roman,serif" font-size="22.00">ONIE Update</text>
</g>
<!-- Uninstall -->
<g id="node17" class="node"><title>Uninstall</title>
<ellipse fill="none" stroke="black" stroke-width="3" cx="1207.89" cy="-280" rx="72" ry="72"/>
<text text-anchor="middle" x="1207.89" y="-272.5" font-family="Times Roman,serif" font-size="25.00">Uninstall</text>
</g>
<!-- OS_Boot&#45;&gt;Uninstall -->
<g id="edge18" class="edge"><title>OS_Boot&#45;&gt;Uninstall</title>
<path fill="none" stroke="black" d="M666.73,-678.064C739.411,-657.268 854.469,-618.216 940.886,-560 1028.59,-500.919 1109.4,-408.612 1158.62,-346.288"/>
<polygon fill="black" stroke="black" points="1161.64,-348.109 1165.06,-338.081 1156.14,-343.789 1161.64,-348.109"/>
<text text-anchor="middle" x="1142.89" y="-481.7" font-family="Times Roman,serif" font-size="22.00">Uninstall</text>
</g>
<!-- Rescue_Shell&#45;&gt;Image_Discovery -->
<g id="edge34" class="edge"><title>Rescue_Shell&#45;&gt;Image_Discovery</title>
<path fill="none" stroke="black" d="M735.94,-519.195C832.34,-569.527 1009.42,-678.738 1080.89,-832 1107.94,-890.003 1097.53,-914.203 1080.89,-976 1074.43,-999.984 1062.58,-1024.1 1050,-1045.22"/>
<polygon fill="black" stroke="black" points="1047,-1043.41 1044.76,-1053.77 1052.97,-1047.06 1047,-1043.41"/>
<text text-anchor="middle" x="1121.39" y="-793.7" font-family="Times Roman,serif" font-size="22.00">Re&#45;Install</text>
</g>
<!-- Rescue_Shell&#45;&gt;OS_Boot -->
<g id="edge32" class="edge"><title>Rescue_Shell&#45;&gt;OS_Boot</title>
<path fill="none" stroke="black" d="M605.786,-519.346C583.191,-533.818 560.398,-553.342 547.886,-578 539.587,-594.357 541.761,-612.458 548.508,-629.47"/>
<polygon fill="black" stroke="black" points="545.403,-631.1 552.69,-638.791 551.79,-628.234 545.403,-631.1"/>
<text text-anchor="middle" x="586.386" y="-585.7" font-family="Times Roman,serif" font-size="22.00">Reboot</text>
</g>
<!-- Rescue_Shell&#45;&gt;Rescue_Shell -->
<g id="edge30" class="edge"><title>Rescue_Shell&#45;&gt;Rescue_Shell</title>
<path fill="none" stroke="black" d="M740.698,-506.204C752.624,-503.716 760.886,-497.648 760.886,-488 760.886,-481.216 756.801,-476.202 750.23,-472.958"/>
<polygon fill="black" stroke="black" points="751.291,-469.623 740.698,-469.796 749.087,-476.267 751.291,-469.623"/>
<text text-anchor="middle" x="846.386" y="-481.7" font-family="Times Roman,serif" font-size="22.00">Run Commands</text>
</g>
<!-- Rescue_Shell&#45;&gt;Update_Discovery -->
<g id="edge38" class="edge"><title>Rescue_Shell&#45;&gt;Update_Discovery</title>
<path fill="none" stroke="black" d="M607.032,-454.118C537.127,-417.026 425.244,-357.659 351.905,-318.745"/>
<polygon fill="black" stroke="black" points="353.187,-315.463 342.713,-313.867 349.906,-321.646 353.187,-315.463"/>
<text text-anchor="middle" x="568.386" y="-377.7" font-family="Times Roman,serif" font-size="22.00">ONIE Update</text>
</g>
<!-- Rescue_Shell&#45;&gt;Uninstall -->
<g id="edge36" class="edge"><title>Rescue_Shell&#45;&gt;Uninstall</title>
<path fill="none" stroke="black" d="M738.083,-461.972C838.103,-423.231 1025.64,-350.592 1131,-309.783"/>
<polygon fill="black" stroke="black" points="1132.56,-312.931 1140.62,-306.056 1130.03,-306.404 1132.56,-312.931"/>
<text text-anchor="middle" x="1017.89" y="-377.7" font-family="Times Roman,serif" font-size="22.00">Uninstall</text>
</g>
<!-- Update_Discovery&#45;&gt;Update_Discovery -->
<g id="edge22" class="edge"><title>Update_Discovery&#45;&gt;Update_Discovery</title>
<path fill="none" stroke="black" d="M348.698,-298.204C360.624,-295.716 368.886,-289.648 368.886,-280 368.886,-273.216 364.801,-268.202 358.23,-264.958"/>
<polygon fill="black" stroke="black" points="359.291,-261.623 348.698,-261.796 357.087,-268.267 359.291,-261.623"/>
<text text-anchor="middle" x="433.886" y="-273.7" font-family="Times Roman,serif" font-size="22.00">None Found</text>
</g>
<!-- Install_ONIE -->
<g id="node7" class="node"><title>Install_ONIE</title>
<ellipse fill="none" stroke="black" stroke-width="3" cx="129.886" cy="-72" rx="72" ry="72"/>
<text text-anchor="middle" x="129.886" y="-79.5" font-family="Times Roman,serif" font-size="25.00">Install</text>
<text text-anchor="middle" x="129.886" y="-49.5" font-family="Times Roman,serif" font-size="25.00">ONIE</text>
</g>
<!-- Update_Discovery&#45;&gt;Install_ONIE -->
<g id="edge24" class="edge"><title>Update_Discovery&#45;&gt;Install_ONIE</title>
<path fill="none" stroke="black" d="M242.67,-217.634C231.42,-199.343 218.618,-179.549 205.886,-162 199.199,-152.782 191.824,-143.316 184.378,-134.145"/>
<polygon fill="black" stroke="black" points="186.884,-131.682 177.832,-126.176 181.475,-136.125 186.884,-131.682"/>
<text text-anchor="middle" x="334.886" y="-169.7" font-family="Times Roman,serif" font-size="22.00">Found ONIE Installer</text>
</g>
<!-- Install_ONIE&#45;&gt;OS_Boot -->
<g id="edge28" class="edge"><title>Install_ONIE&#45;&gt;OS_Boot</title>
<path fill="none" stroke="black" d="M114.306,-142.365C112.971,-158.162 113.288,-174.755 116.886,-190 161.481,-378.905 203.249,-431.69 348.886,-560 400.067,-605.092 468.724,-641.291 520.822,-664.972"/>
<polygon fill="black" stroke="black" points="519.464,-668.199 530.02,-669.101 522.331,-661.813 519.464,-668.199"/>
<text text-anchor="middle" x="239.886" y="-377.7" font-family="Times Roman,serif" font-size="22.00">Success</text>
</g>
<!-- Install_ONIE&#45;&gt;Update_Discovery -->
<g id="edge26" class="edge"><title>Install_ONIE&#45;&gt;Update_Discovery</title>
<path fill="none" stroke="black" d="M118.489,-143.319C118.927,-159.482 121.984,-175.994 129.886,-190 145.564,-217.785 173.649,-237.959 201.242,-252.074"/>
<polygon fill="black" stroke="black" points="200.041,-255.383 210.562,-256.631 203.116,-249.095 200.041,-255.383"/>
<text text-anchor="middle" x="165.886" y="-169.7" font-family="Times Roman,serif" font-size="22.00">Failure</text>
</g>
<!-- Uninstall&#45;&gt;Image_Discovery -->
<g id="edge40" class="edge"><title>Uninstall&#45;&gt;Image_Discovery</title>
<path fill="none" stroke="black" d="M1275.48,-305.494C1345.53,-336.827 1444.89,-397.261 1444.89,-488 1444.89,-904 1444.89,-904 1444.89,-904 1444.89,-983.289 1209.42,-1057.52 1081.83,-1091.93"/>
<polygon fill="black" stroke="black" points="1080.84,-1088.57 1072.08,-1094.53 1082.65,-1095.33 1080.84,-1088.57"/>
<text text-anchor="middle" x="1575.89" y="-689.7" font-family="Times Roman,serif" font-size="22.00">Uninstall OS and Reboot</text>
</g>
</g>
</svg>
